<svg width="24" height="24" viewBox="0 0 24 24" fill="none" xmlns="http://www.w3.org/2000/svg">
<path d="M15.498 0C14.2185 0.0884995 12.723 0.907495 11.8515 1.97399C11.0565 2.94148 10.4025 4.37847 10.6575 5.77497C12.0555 5.81847 13.5 4.97997 14.337 3.89548C15.12 2.88598 15.7125 1.45799 15.498 0Z" fill="#B5B5B5"/>
<path d="M20.5553 8.05167C19.3268 6.51118 17.6003 5.61719 15.9698 5.61719C13.8174 5.61719 12.9069 6.64768 11.4114 6.64768C9.86938 6.64768 8.69789 5.62019 6.8364 5.62019C5.00791 5.62019 3.06092 6.73768 1.82643 8.64867C0.0909415 11.3397 0.38794 16.3991 3.20042 20.7086C4.20692 22.2506 5.55091 23.9846 7.3089 23.9996C8.87339 24.0146 9.31439 22.9961 11.4339 22.9856C13.5534 22.9736 13.9554 24.0131 15.5169 23.9966C17.2763 23.9831 18.6938 22.0616 19.7003 20.5196C20.4218 19.4141 20.6903 18.8576 21.2498 17.6096C17.1803 16.0601 16.5278 10.2732 20.5553 8.05167Z" fill="#B5B5B5"/>
</svg>
