<svg width="25" height="24" viewBox="0 0 25 24" fill="none" xmlns="http://www.w3.org/2000/svg">
<path d="M12.6406 15.0701V13.11C12.6406 10.59 14.6806 8.54004 17.2106 8.54004H19.1706" stroke="#FE5401" stroke-width="1.5" stroke-linecap="round" stroke-linejoin="round"/>
<path d="M6.12109 8.5498H8.08112C10.6011 8.5498 12.6511 10.5898 12.6511 13.1198V13.7698V17.2498" stroke="#FE5401" stroke-width="1.5" stroke-linecap="round" stroke-linejoin="round"/>
<path d="M7.63983 6.75L5.83984 8.55L7.63983 10.35" stroke="#FE5401" stroke-width="1.5" stroke-linecap="round" stroke-linejoin="round"/>
<path d="M17.3594 6.75L19.1594 8.55L17.3594 10.35" stroke="#FE5401" stroke-width="1.5" stroke-linecap="round" stroke-linejoin="round"/>
<path d="M9.5 22H15.5C20.5 22 22.5 20 22.5 15V9C22.5 4 20.5 2 15.5 2H9.5C4.5 2 2.5 4 2.5 9V15C2.5 20 4.5 22 9.5 22Z" stroke="#FE5401" stroke-width="1.5" stroke-linecap="round" stroke-linejoin="round"/>
</svg>
