<svg width="25" height="24" viewBox="0 0 25 24" fill="none" xmlns="http://www.w3.org/2000/svg">
<path opacity="0.4" d="M21.8728 11.3894V17.3794C21.8728 20.1394 19.6328 22.3794 16.8728 22.3794H8.13281C5.37281 22.3794 3.13281 20.1394 3.13281 17.3794V11.4594C3.89281 12.2794 4.97281 12.7494 6.14281 12.7494C7.40281 12.7494 8.61281 12.1194 9.37281 11.1094C10.0528 12.1194 11.2128 12.7494 12.5028 12.7494C13.7828 12.7494 14.9228 12.1494 15.6128 11.1494C16.3828 12.1394 17.5728 12.7494 18.8128 12.7494C20.0228 12.7494 21.1228 12.2594 21.8728 11.3894Z" fill="white"/>
<path d="M15.4913 1.25H9.49132L8.75132 8.61C8.69132 9.29 8.79132 9.93 9.04132 10.51C9.62132 11.87 10.9813 12.75 12.5013 12.75C14.0413 12.75 15.3713 11.89 15.9713 10.52C16.1513 10.09 16.2613 9.59 16.2713 9.08V8.89L15.4913 1.25Z" fill="white"/>
<path opacity="0.6" d="M22.8578 8.27L22.5678 5.5C22.1478 2.48 20.7778 1.25 17.8478 1.25H14.0078L14.7478 8.75C14.7578 8.85 14.7678 8.96 14.7678 9.15C14.8278 9.67 14.9878 10.15 15.2278 10.58C15.9478 11.9 17.3478 12.75 18.8078 12.75C20.1378 12.75 21.3378 12.16 22.0878 11.12C22.6878 10.32 22.9578 9.31 22.8578 8.27Z" fill="white"/>
<path opacity="0.6" d="M7.08965 1.25C4.14965 1.25 2.78965 2.48 2.35965 5.53L2.08965 8.28C1.98965 9.35 2.27965 10.39 2.90965 11.2C3.66965 12.19 4.83965 12.75 6.13965 12.75C7.59965 12.75 8.99965 11.9 9.70965 10.6C9.96965 10.15 10.1396 9.63 10.1896 9.09L10.9697 1.26H7.08965V1.25Z" fill="white"/>
<path d="M11.8472 16.6602C10.5772 16.7902 9.61719 17.8702 9.61719 19.1502V22.3802H15.3672V19.5002C15.3772 17.4102 14.1472 16.4202 11.8472 16.6602Z" fill="white"/>
</svg>
