<svg width="112" height="112" viewBox="0 0 112 112" fill="none" xmlns="http://www.w3.org/2000/svg">
<rect width="112" height="112" rx="56" fill="#484848"/>
<path d="M25.25 56.4611C21.0044 56.4611 17.5625 53.0192 17.5625 48.7736V45.8389H32.8594L32.9375 48.7736C32.9375 53.0192 29.4958 56.4611 25.25 56.4611Z" fill="#FE8C55"/>
<path d="M40.625 56.4611C36.3794 56.4611 32.9375 53.0192 32.9375 48.7736L32.8594 45.8389H48.3125V48.7736C48.3125 53.0192 44.8708 56.4611 40.625 56.4611Z" fill="#FFCAB0"/>
<path d="M56 56.4611C51.7544 56.4611 48.3125 53.0192 48.3125 48.7736V45.8389H63.6875V48.7736C63.6875 53.0192 60.2458 56.4611 56 56.4611Z" fill="#FE8C55"/>
<path d="M71.375 56.4611C67.1294 56.4611 63.6875 53.0192 63.6875 48.7736V45.8389H79.0625V48.7736C79.0625 53.0192 75.6208 56.4611 71.375 56.4611Z" fill="#FFCAB0"/>
<path d="M86.75 56.4611C82.5044 56.4611 79.0625 53.0192 79.0625 48.7736V45.8389H94.4375V48.7736C94.4375 53.0192 90.9958 56.4611 86.75 56.4611Z" fill="#FE8C55"/>
<path d="M89.875 55.7995V89.3933H22.125V55.7995C23.1087 56.2368 24.1735 56.462 25.25 56.4605C29.4953 56.4605 32.9375 53.0198 32.9375 48.7729C32.9375 53.0198 36.3797 56.4605 40.625 56.4605C44.8703 56.4605 48.3125 53.0198 48.3125 48.7729C48.3125 53.0198 51.7547 56.4605 56 56.4605C60.2453 56.4605 63.6875 53.0198 63.6875 48.7729C63.6875 53.0198 67.1297 56.4605 71.375 56.4605C75.6203 56.4605 79.0625 53.0198 79.0625 48.7729C79.0625 53.0198 82.5047 56.4605 86.75 56.4605C87.8625 56.4605 88.9203 56.2245 89.875 55.7995Z" fill="#FFEEE6"/>
<path d="M30.2305 64.6045H44.003V89.3932H30.2305V64.6045Z" fill="#FFCAB0"/>
<path d="M53.3398 67.3579H61.8152V79.2856H53.3398V67.3579ZM72.6869 67.3579H81.1622V79.2856H72.6869V67.3579Z" fill="#FFCAB0"/>
<path d="M21.2803 36.9932H32.8594V45.8389H17.5625L17.6558 40.5541C17.6908 38.5774 19.3033 36.9932 21.2803 36.9932Z" fill="#FE8C55"/>
<path d="M32.8594 36.9932H48.3125V45.8389H32.8594V36.9932Z" fill="#FFCAB0"/>
<path d="M48.3125 36.9932H63.6875V45.8389H48.3125V36.9932Z" fill="#FE8C55"/>
<path d="M63.6875 36.9932H79.0625V45.8389H63.6875V36.9932Z" fill="#FFCAB0"/>
<path d="M79.0625 36.9932H90.8125C92.8145 36.9932 94.4375 38.6161 94.4375 40.6182V45.8389H79.0625V36.9932Z" fill="#FE8C55"/>
<path d="M32.8594 36.9932L40.7664 22.6074H34.5586C34.0139 22.6074 33.4762 22.7302 32.9855 22.9665C32.4948 23.2029 32.0636 23.5468 31.7241 23.9727L21.3438 36.9932H32.8594Z" fill="#FE8C55"/>
<path d="M48.3125 36.9932L50.0312 22.6074H40.7664L32.8594 36.9932H48.3125Z" fill="#FFCAB0"/>
<path d="M79.0633 36.9932L71.2344 22.6074H77.4569C78.5519 22.6074 79.5881 23.1024 80.2764 23.954L90.8133 36.993L79.0633 36.9932Z" fill="#FE8C55"/>
<path d="M63.6875 36.9932L61.8125 22.6074H71.2337L79.0625 36.9932H63.6875Z" fill="#FFCAB0"/>
<path d="M61.8125 22.6074H50.0312L48.3125 36.9932H63.6875L61.8125 22.6074Z" fill="#FE8C55"/>
<path d="M17.5625 87.8305C16.6995 87.8305 16 88.5302 16 89.393C16 90.2559 16.6995 90.9555 17.5625 90.9555H94.4375C95.3003 90.9555 96 90.2559 96 89.393C96 88.5302 95.3003 87.8305 94.4375 87.8305H91.4375V79.3893C91.4375 78.5265 90.7378 77.8268 89.875 77.8268C89.0122 77.8268 88.3125 78.5265 88.3125 79.3893V87.8305H45.5655V64.6043C45.5655 63.7415 44.8659 63.0418 44.003 63.0418H30.2305C29.3675 63.0418 28.668 63.7415 28.668 64.6043V87.8305H23.6875V57.8924C24.2234 57.9834 24.7712 58.0259 25.3147 58.022C28.355 58.0012 31.2448 56.4351 32.9375 53.9123C34.6427 56.4534 37.5623 58.0237 40.625 58.0237C43.6856 58.0237 46.6103 56.4537 48.3125 53.9123C50.0231 56.451 52.933 58.0237 56 58.0237C59.0625 58.0237 61.9831 56.453 63.6875 53.9123C65.3152 56.3385 68.0564 57.8893 70.9778 58.0135C74.178 58.1495 77.2789 56.5705 79.0625 53.9123C81.0762 56.914 84.7461 58.4973 88.3125 57.8924V65.6663C88.3125 66.5291 89.0122 67.2288 89.875 67.2288C90.7378 67.2288 91.4375 66.5291 91.4375 65.6663V56.7434C94.1653 55.1329 96 52.1643 96 48.7737V40.6182C96 38.0973 94.1016 35.8774 91.608 35.4915L81.4911 22.9721C80.5016 21.7473 79.0309 21.0449 77.4563 21.0449H34.5586C32.9708 21.0449 31.4923 21.7571 30.5023 22.9987L20.5497 35.4826C18.0723 35.8405 16.0444 38.0209 16 40.5265V48.7737C16 52.1643 17.8348 55.1327 20.5625 56.7434V87.8305H17.5625ZM31.793 66.1668H42.4405V87.8305H31.793V66.1668ZM77.5 48.773C77.5 52.1504 74.7523 54.898 71.3752 54.898C67.9978 54.898 65.2502 52.1504 65.2502 48.773V47.4015H77.5V48.773ZM77.5 44.2765H65.25V38.5557H77.5V44.2765ZM92.875 48.7737C92.875 52.108 90.0831 54.898 86.75 54.898C83.3727 54.898 80.625 52.1504 80.625 48.773V47.4015H92.875V48.7737ZM92.875 40.6182V44.2765H80.625V38.5557H90.8125C91.9497 38.5557 92.875 39.4809 92.875 40.6182ZM77.4563 24.1699C78.0823 24.1699 78.667 24.4491 79.0605 24.936L87.5411 35.4305H79.9912L73.8631 24.1699H77.4563ZM70.3052 24.1699L76.4333 35.4305H65.0597L63.592 24.1699H70.3052ZM51.4181 24.1699H60.4405L61.9081 35.4305H50.0728L51.4181 24.1699ZM49.875 38.5557H62.125V44.2765H49.875V38.5557ZM49.875 47.4015H62.125V48.773C62.125 52.1504 59.3773 54.898 56 54.898C52.6227 54.898 49.875 52.1504 49.875 48.773V47.4015ZM46.75 48.773C46.75 52.1504 44.0023 54.898 40.625 54.898C37.2477 54.898 34.5 52.1504 34.5 48.773V48.7729L34.4995 48.7321L34.4641 47.4015H46.75V48.773ZM46.75 44.2765H34.4219V38.5557H46.75V44.2765ZM41.6905 24.1699H48.2709L46.9256 35.4305H35.5012L41.6905 24.1699ZM32.9458 24.9468C33.1385 24.7039 33.3837 24.5078 33.663 24.3733C33.9424 24.2387 34.2485 24.1692 34.5586 24.1699H38.1247L31.9353 35.4305H24.5878L32.9458 24.9468ZM19.2181 40.5816C19.2378 39.4645 20.1628 38.5555 21.2803 38.5555H31.2969V44.2763H19.2181V40.5816ZM19.125 48.7737V47.4015H31.3378L31.3747 48.7846C31.3686 52.1084 28.5816 54.8982 25.25 54.8982C21.9169 54.898 19.125 52.108 19.125 48.7737Z" fill="#1A1A1A"/>
<path d="M61.8157 65.7959H53.3404C52.4774 65.7959 51.7779 66.4956 51.7779 67.3584V77.7236H51.3995C50.5365 77.7236 49.837 78.4232 49.837 79.2861C49.837 80.1489 50.5365 80.8486 51.3995 80.8486H63.7568C64.6196 80.8486 65.3193 80.1489 65.3193 79.2861C65.3193 78.4232 64.6196 77.7236 63.7568 77.7236H63.3782V67.3584C63.3782 66.4954 62.6785 65.7959 61.8157 65.7959ZM60.2532 77.7234H54.9029V68.9207H60.2532V77.7234ZM81.1628 65.7959H72.6874C71.8246 65.7959 71.1249 66.4956 71.1249 67.3584V77.7236H70.7465C69.8837 77.7236 69.184 78.4232 69.184 79.2861C69.184 80.1489 69.8837 80.8486 70.7465 80.8486H83.1039C83.9667 80.8486 84.6664 80.1489 84.6664 79.2861C84.6664 78.4232 83.9667 77.7236 83.1039 77.7236H82.7253V67.3584C82.7253 66.4954 82.0257 65.7959 81.1628 65.7959ZM79.6003 77.7234H74.2499V68.9207H79.6003V77.7234ZM33.5693 77.6646C33.8468 78.4373 34.7026 78.8737 35.492 78.6334C36.3589 78.3695 36.8307 77.3801 36.481 76.5412C35.7214 74.7164 32.9049 75.8143 33.5693 77.6646ZM88.9456 71.0793C88.2742 71.5775 88.1178 72.5425 88.5951 73.2282C89.0737 73.9159 90.046 74.094 90.742 73.6318C91.4506 73.1614 91.6443 72.1723 91.1732 71.4662C90.6915 70.7292 89.6473 70.5587 88.9456 71.0793Z" fill="#1A1A1A"/>
</svg>
