<svg width="25" height="24" viewBox="0 0 25 24" fill="none" xmlns="http://www.w3.org/2000/svg">
<path d="M18.12 10.7496C17.69 10.7496 17.35 10.3996 17.35 9.97961C17.35 9.60961 16.98 8.83961 16.36 8.16961C15.75 7.51961 15.08 7.13961 14.52 7.13961C14.09 7.13961 13.75 6.78961 13.75 6.36961C13.75 5.94961 14.1 5.59961 14.52 5.59961C15.52 5.59961 16.57 6.13961 17.49 7.10961C18.35 8.01961 18.9 9.14961 18.9 9.96961C18.9 10.3996 18.55 10.7496 18.12 10.7496Z" fill="white"/>
<path d="M21.7278 10.75C21.2978 10.75 20.9578 10.4 20.9578 9.98C20.9578 6.43 18.0678 3.55 14.5278 3.55C14.0978 3.55 13.7578 3.2 13.7578 2.78C13.7578 2.36 14.0978 2 14.5178 2C18.9178 2 22.4978 5.58 22.4978 9.98C22.4978 10.4 22.1478 10.75 21.7278 10.75Z" fill="white"/>
<path opacity="0.4" d="M12.29 14.21L9.02 17.48C8.66 17.16 8.31 16.83 7.97 16.49C6.94 15.45 6.01 14.36 5.18 13.22C4.36 12.08 3.7 10.94 3.22 9.81C2.74 8.67 2.5 7.58 2.5 6.54C2.5 5.86 2.62 5.21 2.86 4.61C3.1 4 3.48 3.44 4.01 2.94C4.65 2.31 5.35 2 6.09 2C6.37 2 6.65 2.06 6.9 2.18C7.16 2.3 7.39 2.48 7.57 2.74L9.89 6.01C10.07 6.26 10.2 6.49 10.29 6.71C10.38 6.92 10.43 7.13 10.43 7.32C10.43 7.56 10.36 7.8 10.22 8.03C10.09 8.26 9.9 8.5 9.66 8.74L8.9 9.53C8.79 9.64 8.74 9.77 8.74 9.93C8.74 10.01 8.75 10.08 8.77 10.16C8.8 10.24 8.83 10.3 8.85 10.36C9.03 10.69 9.34 11.12 9.78 11.64C10.23 12.16 10.71 12.69 11.23 13.22C11.59 13.57 11.94 13.91 12.29 14.21Z" fill="white"/>
<path d="M22.4716 18.3291C22.4716 18.6091 22.4216 18.8991 22.3216 19.1791C22.2916 19.2591 22.2616 19.3391 22.2216 19.4191C22.0516 19.7791 21.8316 20.1191 21.5416 20.4391C21.0516 20.9791 20.5116 21.3691 19.9016 21.6191C19.8916 21.6191 19.8816 21.6291 19.8716 21.6291C19.2816 21.8691 18.6416 21.9991 17.9516 21.9991C16.9316 21.9991 15.8416 21.7591 14.6916 21.2691C13.5416 20.7791 12.3916 20.1191 11.2516 19.2891C10.8616 18.9991 10.4716 18.7091 10.1016 18.3991L13.3716 15.1291C13.6516 15.3391 13.9016 15.4991 14.1116 15.6091C14.1616 15.6291 14.2216 15.6591 14.2916 15.6891C14.3716 15.7191 14.4516 15.7291 14.5416 15.7291C14.7116 15.7291 14.8416 15.6691 14.9516 15.5591L15.7116 14.8091C15.9616 14.5591 16.2016 14.3691 16.4316 14.2491C16.6616 14.1091 16.8916 14.0391 17.1416 14.0391C17.3316 14.0391 17.5316 14.0791 17.7516 14.1691C17.9716 14.2591 18.2016 14.3891 18.4516 14.5591L21.7616 16.9091C22.0216 17.0891 22.2016 17.2991 22.3116 17.5491C22.4116 17.7991 22.4716 18.0491 22.4716 18.3291Z" fill="white"/>
</svg>
