<svg width="25" height="24" viewBox="0 0 25 24" fill="none" xmlns="http://www.w3.org/2000/svg">
<g id="vuesax/linear/chart-square">
<g id="Group">
<path id="Vector" d="M10.6103 11.1504H7.9603C7.3303 11.1504 6.82031 11.6603 6.82031 12.2903V17.4103H10.6103V11.1504V11.1504Z" stroke="#FE5401" stroke-width="1.5" stroke-miterlimit="10" stroke-linecap="round" stroke-linejoin="round"/>
<path id="Vector_2" d="M13.2616 6.59961H11.7415C11.1115 6.59961 10.6016 7.10962 10.6016 7.73962V17.3997H14.3916V7.73962C14.3916 7.10962 13.8916 6.59961 13.2616 6.59961Z" stroke="#FE5401" stroke-width="1.5" stroke-miterlimit="10" stroke-linecap="round" stroke-linejoin="round"/>
<path id="Vector_3" d="M17.0484 12.8496H14.3984V17.3997H18.1884V13.9896C18.1784 13.3596 17.6684 12.8496 17.0484 12.8496Z" stroke="#FE5401" stroke-width="1.5" stroke-miterlimit="10" stroke-linecap="round" stroke-linejoin="round"/>
</g>
<path id="Vector_4" d="M9.5 22H15.5C20.5 22 22.5 20 22.5 15V9C22.5 4 20.5 2 15.5 2H9.5C4.5 2 2.5 4 2.5 9V15C2.5 20 4.5 22 9.5 22Z" stroke="#FE5401" stroke-width="1.5" stroke-linecap="round" stroke-linejoin="round"/>
</g>
</svg>
