<svg width="50" height="50" viewBox="0 0 50 50" fill="none" xmlns="http://www.w3.org/2000/svg">
<path d="M41 40H9C7.346 40 6 41.346 6 43C6 44.654 7.346 46 9 46H41C42.654 46 44 44.654 44 43C44 41.346 42.654 40 41 40ZM46 10C43.794 10 42 11.794 42 14C42 15.482 42.82 16.764 44.022 17.456C41.708 22.9359 38.0979 26.2979 34.7239 25.9939C30.972 25.688 27.9119 21.252 26.2239 13.83C28.3879 13.2819 29.9999 11.3319 29.9999 9C29.9999 6.24199 27.7579 4 24.9999 4C22.2419 4 19.9999 6.24199 19.9999 9C19.9999 11.332 21.6119 13.282 23.7759 13.83C22.0879 21.252 19.0278 25.688 15.2759 25.9939C11.9159 26.2979 8.28984 22.9359 5.97793 17.456C7.17988 16.764 7.9999 15.4819 7.9999 14C7.9999 11.794 6.20586 10 3.9999 10C1.79404 10 0 11.794 0 14C0 16.052 1.55996 17.728 3.55195 17.956L7.404 38H42.596L46.448 17.956C48.44 17.728 50 16.052 50 14C50 11.794 48.206 10 46 10Z" fill="url(#paint0_linear_20063_1418)"/>
<defs>
<linearGradient id="paint0_linear_20063_1418" x1="-35.7143" y1="10.5333" x2="31.9874" y2="53.7104" gradientUnits="userSpaceOnUse">
<stop stop-color="#FFC900"/>
<stop offset="1" stop-color="#FE5401"/>
</linearGradient>
</defs>
</svg>
