<svg width="100" height="100" viewBox="0 0 100 100" fill="none" xmlns="http://www.w3.org/2000/svg">
<path d="M84.375 29.7969L80.2031 86.625C80.0308 88.5756 79.1322 90.3904 77.6854 91.71C76.2385 93.0295 74.3488 93.7576 72.3906 93.75H56.25C55.8356 93.75 55.4382 93.5854 55.1451 93.2924C54.8521 92.9993 54.6875 92.6019 54.6875 92.1875C54.6875 91.7731 54.8521 91.3757 55.1451 91.0826C55.4382 90.7896 55.8356 90.625 56.25 90.625H72.4219C73.5953 90.6298 74.7279 90.1942 75.5958 89.4044C76.4637 88.6147 77.0038 87.5281 77.1094 86.3594L81.25 29.5781C81.2644 29.3729 81.319 29.1726 81.4108 28.9885C81.5026 28.8044 81.6297 28.6402 81.785 28.5053C81.9402 28.3704 82.1205 28.2673 82.3156 28.2021C82.5107 28.1368 82.7167 28.1106 82.9219 28.125C83.1271 28.1394 83.3274 28.194 83.5115 28.2858C83.6956 28.3776 83.8598 28.5047 83.9947 28.66C84.1296 28.8152 84.2327 28.9955 84.2979 29.1906C84.3632 29.3857 84.3894 29.5917 84.375 29.7969ZM92.1875 20.3125C92.1875 21.5557 91.6936 22.748 90.8146 23.6271C89.9355 24.5061 88.7432 25 87.5 25H31.25V39.0625C31.25 39.4769 31.0854 39.8743 30.7924 40.1674C30.4993 40.4604 30.1019 40.625 29.6875 40.625C29.2731 40.625 28.8757 40.4604 28.5826 40.1674C28.2896 39.8743 28.125 39.4769 28.125 39.0625V25H25C23.7568 25 22.5645 24.5061 21.6854 23.6271C20.8064 22.748 20.3125 21.5557 20.3125 20.3125C20.3125 19.0693 20.8064 17.877 21.6854 16.9979C22.5645 16.1189 23.7568 15.625 25 15.625H40.625V14.0625C40.625 11.9905 41.4481 10.0034 42.9132 8.53823C44.3784 7.0731 46.3655 6.25 48.4375 6.25H64.0625C66.1345 6.25 68.1216 7.0731 69.5868 8.53823C71.0519 10.0034 71.875 11.9905 71.875 14.0625V15.625H87.5C88.7432 15.625 89.9355 16.1189 90.8146 16.9979C91.6936 17.877 92.1875 19.0693 92.1875 20.3125ZM43.75 15.625H68.75V14.0625C68.75 12.8193 68.2561 11.627 67.3771 10.7479C66.498 9.86886 65.3057 9.375 64.0625 9.375H48.4375C47.1943 9.375 46.002 9.86886 45.1229 10.7479C44.2439 11.627 43.75 12.8193 43.75 14.0625V15.625ZM29.6875 79.6875C26.7867 79.6875 24.0047 80.8398 21.9535 82.891C19.9023 84.9422 18.75 87.7242 18.75 90.625C18.75 90.625 18.75 90.7188 18.75 90.7656C22.068 92.7072 25.8431 93.7306 29.6875 93.7306C33.5319 93.7306 37.307 92.7072 40.625 90.7656V90.625C40.625 87.7242 39.4727 84.9422 37.4215 82.891C35.3703 80.8398 32.5883 79.6875 29.6875 79.6875ZM51.5625 71.875C51.5605 75.0975 50.8465 78.2798 49.4717 81.1943C48.0968 84.1087 46.095 86.6835 43.6094 88.7344C43.2485 86.069 42.1308 83.563 40.3888 81.5137C38.6468 79.4643 36.3537 77.9575 33.7813 77.1719C35.6897 76.2456 37.2275 74.6994 38.1435 72.786C39.0595 70.8726 39.2995 68.7051 38.8242 66.6376C38.349 64.5702 37.1866 62.7251 35.5271 61.4037C33.8675 60.0824 31.8089 59.3629 29.6875 59.3629C27.5662 59.3629 25.5075 60.0824 23.848 61.4037C22.1884 62.7251 21.026 64.5702 20.5508 66.6376C20.0755 68.7051 20.3155 70.8726 21.2315 72.786C22.1475 74.6994 23.6853 76.2456 25.5938 77.1719C23.0213 77.9575 20.7282 79.4643 18.9862 81.5137C17.2442 83.563 16.1265 86.069 15.7656 88.7344C12.9222 86.3883 10.7178 83.3616 9.35713 79.9355C7.99648 76.5095 7.52372 72.7951 7.98278 69.1374C8.44183 65.4797 9.8178 61.9974 11.9829 59.0138C14.148 56.0302 17.0319 53.6421 20.367 52.0714C23.702 50.5007 27.3798 49.7983 31.059 50.0294C34.7381 50.2606 38.2991 51.4177 41.4114 53.3934C44.5236 55.3691 47.086 58.0993 48.8607 61.3304C50.6354 64.5615 51.5648 68.1886 51.5625 71.875ZM18.75 73.4375C18.7475 73.2333 18.7051 73.0316 18.625 72.8438C18.5459 72.6544 18.4349 72.48 18.2969 72.3281C18.0783 72.1078 17.7991 71.9575 17.4948 71.8964C17.1905 71.8354 16.8749 71.8663 16.5883 71.9854C16.3017 72.1044 16.057 72.306 15.8854 72.5647C15.7139 72.8233 15.6232 73.1272 15.625 73.4375C15.6173 73.5363 15.6173 73.6356 15.625 73.7344C15.6395 73.8379 15.6712 73.9382 15.7188 74.0312C15.753 74.1308 15.8002 74.2254 15.8594 74.3125C15.9171 74.3944 15.9797 74.4726 16.0469 74.5469C16.2635 74.7785 16.5454 74.9387 16.8552 75.0062C17.165 75.0738 17.488 75.0455 17.7813 74.9251C18.0746 74.8047 18.3244 74.5979 18.4974 74.3322C18.6705 74.0665 18.7585 73.7545 18.75 73.4375ZM43.75 73.4375C43.7475 73.2333 43.7051 73.0316 43.625 72.8438C43.5534 72.6506 43.4416 72.4748 43.2969 72.3281C43.22 72.2574 43.1363 72.1946 43.0469 72.1406C42.9671 72.0788 42.8772 72.0312 42.7812 72C42.6882 71.9524 42.5879 71.9207 42.4844 71.9062C42.2334 71.856 41.9738 71.8682 41.7286 71.9417C41.4834 72.0153 41.26 72.148 41.0781 72.3281C40.9334 72.4748 40.8216 72.6506 40.75 72.8438C40.6625 73.0292 40.6197 73.2325 40.625 73.4375C40.6096 73.5411 40.6096 73.6464 40.625 73.75C40.6421 73.8479 40.6737 73.9427 40.7188 74.0312C40.753 74.1308 40.8002 74.2254 40.8594 74.3125C40.9171 74.3944 40.9797 74.4726 41.0469 74.5469L41.2813 74.7344L41.5625 74.875C41.6511 74.92 41.7459 74.9516 41.8438 74.9688H42.4531C42.5566 74.9543 42.657 74.9226 42.75 74.875C42.9394 74.7959 43.1138 74.6849 43.2656 74.5469C43.5626 74.2523 43.7359 73.8555 43.75 73.4375ZM63.4688 34.25C63.6566 34.3301 63.8583 34.3725 64.0625 34.375C64.3729 34.3768 64.6767 34.2861 64.9353 34.1146C65.194 33.943 65.3956 33.6983 65.5146 33.4117C65.6337 33.1251 65.6646 32.8095 65.6036 32.5052C65.5425 32.2009 65.3922 31.9217 65.1719 31.7031C64.9521 31.4863 64.6731 31.3394 64.37 31.2811C64.0669 31.2227 63.7533 31.2553 63.4688 31.375C63.2794 31.4541 63.105 31.5651 62.9531 31.7031C62.8067 31.8484 62.6904 32.0212 62.6111 32.2116C62.5318 32.402 62.4909 32.6062 62.4909 32.8125C62.4909 33.0188 62.5318 33.223 62.6111 33.4134C62.6904 33.6038 62.8067 33.7766 62.9531 33.9219C63.105 34.0599 63.2794 34.1709 63.4688 34.25ZM56.25 34.375C56.6637 34.3692 57.0599 34.2074 57.3594 33.9219C57.5041 33.7752 57.6159 33.5994 57.6875 33.4062C57.7702 33.2192 57.8129 33.017 57.8129 32.8125C57.8129 32.608 57.7702 32.4058 57.6875 32.2188C57.6159 32.0256 57.5041 31.8498 57.3594 31.7031C57.1774 31.5226 56.9538 31.3897 56.7084 31.316C56.4629 31.2423 56.203 31.2301 55.9517 31.2806C55.7005 31.331 55.4654 31.4424 55.2674 31.6051C55.0693 31.7678 54.9143 31.9767 54.816 32.2134C54.7178 32.4501 54.6792 32.7073 54.7038 32.9624C54.7284 33.2175 54.8154 33.4627 54.957 33.6763C55.0987 33.8898 55.2908 34.0653 55.5162 34.1871C55.7417 34.309 55.9937 34.3735 56.25 34.375ZM48.4375 34.375C48.7989 34.3729 49.1483 34.2456 49.4264 34.0148C49.7045 33.784 49.894 33.464 49.9626 33.1091C50.0312 32.7543 49.9747 32.3867 49.8027 32.0689C49.6307 31.7511 49.3538 31.5027 49.0193 31.366C48.6847 31.2294 48.3132 31.2129 47.9679 31.3195C47.6225 31.426 47.3248 31.6489 47.1254 31.9503C46.926 32.2517 46.8372 32.6129 46.8742 32.9723C46.9111 33.3318 47.0716 33.6674 47.3281 33.9219C47.6276 34.2074 48.0238 34.3692 48.4375 34.375ZM62.9531 41.7344C63.105 41.8724 63.2794 41.9834 63.4688 42.0625C63.6566 42.1426 63.8583 42.185 64.0625 42.1875C64.3729 42.1893 64.6767 42.0986 64.9353 41.9271C65.194 41.7555 65.3956 41.5108 65.5146 41.2242C65.6337 40.9376 65.6646 40.622 65.6036 40.3177C65.5425 40.0134 65.3922 39.7342 65.1719 39.5156C64.9521 39.2988 64.6731 39.1519 64.37 39.0936C64.0669 39.0352 63.7533 39.0678 63.4688 39.1875C63.2794 39.2666 63.105 39.3776 62.9531 39.5156C62.8067 39.6609 62.6904 39.8337 62.6111 40.0241C62.5318 40.2145 62.4909 40.4187 62.4909 40.625C62.4909 40.8313 62.5318 41.0355 62.6111 41.2259C62.6904 41.4163 62.8067 41.5891 62.9531 41.7344ZM55.1406 41.7344C55.2859 41.8808 55.4587 41.9971 55.6491 42.0764C55.8395 42.1557 56.0437 42.1966 56.25 42.1966C56.4563 42.1966 56.6605 42.1557 56.8509 42.0764C57.0413 41.9971 57.2141 41.8808 57.3594 41.7344C57.5041 41.5877 57.6159 41.4119 57.6875 41.2188C57.7676 41.0309 57.81 40.8292 57.8125 40.625C57.811 40.3687 57.7465 40.1167 57.6246 39.8912C57.5028 39.6658 57.3274 39.4737 57.1138 39.332C56.9002 39.1903 56.655 39.1034 56.3999 39.0788C56.1448 39.0542 55.8876 39.0928 55.6509 39.191C55.4142 39.2893 55.2053 39.4443 55.0426 39.6424C54.8799 39.8404 54.7685 40.0755 54.7181 40.3267C54.6676 40.578 54.6798 40.8379 54.7535 41.0833C54.8272 41.3288 54.9601 41.5524 55.1406 41.7344ZM47.3281 41.7344C47.5826 41.9909 47.9182 42.1514 48.2777 42.1883C48.6371 42.2253 48.9983 42.1365 49.2997 41.9371C49.6011 41.7377 49.824 41.44 49.9305 41.0947C50.0371 40.7493 50.0206 40.3778 49.884 40.0432C49.7473 39.7087 49.4989 39.4318 49.1811 39.2598C48.8633 39.0878 48.4957 39.0313 48.1409 39.0999C47.7861 39.1685 47.466 39.358 47.2352 39.6361C47.0044 39.9142 46.8771 40.2636 46.875 40.625C46.8808 41.0387 47.0426 41.4349 47.3281 41.7344ZM62.9531 49.5469C63.105 49.6849 63.2794 49.7959 63.4688 49.875C63.6566 49.9551 63.8583 49.9975 64.0625 50C64.3729 50.0018 64.6767 49.9111 64.9353 49.7396C65.194 49.568 65.3956 49.3233 65.5146 49.0367C65.6337 48.7501 65.6646 48.4345 65.6036 48.1302C65.5425 47.8259 65.3922 47.5467 65.1719 47.3281C64.9521 47.1113 64.6731 46.9644 64.37 46.9061C64.0669 46.8477 63.7533 46.8803 63.4688 47C63.2794 47.0791 63.105 47.1901 62.9531 47.3281C62.8067 47.4734 62.6904 47.6462 62.6111 47.8366C62.5318 48.027 62.4909 48.2312 62.4909 48.4375C62.4909 48.6438 62.5318 48.848 62.6111 49.0384C62.6904 49.2288 62.8067 49.4016 62.9531 49.5469ZM54.8125 49.0312C54.8916 49.2206 55.0026 49.395 55.1406 49.5469C55.2859 49.6933 55.4587 49.8096 55.6491 49.8889C55.8395 49.9682 56.0437 50.0091 56.25 50.0091C56.4563 50.0091 56.6605 49.9682 56.8509 49.8889C57.0413 49.8096 57.2141 49.6933 57.3594 49.5469C57.4974 49.395 57.6084 49.2206 57.6875 49.0312C57.7702 48.8442 57.8129 48.642 57.8129 48.4375C57.8129 48.233 57.7702 48.0308 57.6875 47.8438C57.6131 47.652 57.5016 47.4767 57.3594 47.3281C57.1408 47.1078 56.8616 46.9575 56.5573 46.8964C56.253 46.8354 55.9374 46.8663 55.6508 46.9854C55.3642 47.1044 55.1195 47.306 54.9479 47.5647C54.7764 47.8233 54.6857 48.1271 54.6875 48.4375C54.6822 48.6425 54.725 48.8458 54.8125 49.0312ZM62.9531 68.2969C63.105 68.4349 63.2794 68.5459 63.4688 68.625C63.6566 68.7051 63.8583 68.7475 64.0625 68.75C64.3729 68.7518 64.6767 68.6611 64.9353 68.4896C65.194 68.318 65.3956 68.0733 65.5146 67.7867C65.6337 67.5001 65.6646 67.1845 65.6036 66.8802C65.5425 66.5759 65.3922 66.2967 65.1719 66.0781C64.9521 65.8613 64.6731 65.7144 64.37 65.656C64.0669 65.5977 63.7533 65.6303 63.4688 65.75C63.2794 65.8291 63.105 65.9401 62.9531 66.0781C62.8067 66.2234 62.6904 66.3962 62.6111 66.5866C62.5318 66.777 62.4909 66.9812 62.4909 67.1875C62.4909 67.3938 62.5318 67.598 62.6111 67.7884C62.6904 67.9788 62.8067 68.1516 62.9531 68.2969ZM55.1406 68.2969C55.2859 68.4433 55.4587 68.5596 55.6491 68.6389C55.8395 68.7182 56.0437 68.7591 56.25 68.7591C56.4563 68.7591 56.6605 68.7182 56.8509 68.6389C57.0413 68.5596 57.2141 68.4433 57.3594 68.2969C57.5041 68.1502 57.6159 67.9744 57.6875 67.7812C57.7702 67.5942 57.8129 67.392 57.8129 67.1875C57.8129 66.983 57.7702 66.7808 57.6875 66.5938C57.6131 66.402 57.5016 66.2267 57.3594 66.0781C57.2137 65.9324 57.0407 65.8169 56.8504 65.738C56.66 65.6592 56.456 65.6186 56.25 65.6186C56.044 65.6186 55.84 65.6592 55.6496 65.738C55.4593 65.8169 55.2863 65.9324 55.1406 66.0781C54.9949 66.2238 54.8794 66.3968 54.8005 66.5871C54.7217 66.7775 54.6811 66.9815 54.6811 67.1875C54.6811 67.3935 54.7217 67.5975 54.8005 67.7879C54.8794 67.9782 54.9949 68.1512 55.1406 68.2969ZM62.9531 76.1094C63.105 76.2474 63.2794 76.3584 63.4688 76.4375C63.6566 76.5176 63.8583 76.56 64.0625 76.5625C64.3729 76.5643 64.6767 76.4736 64.9353 76.3021C65.194 76.1305 65.3956 75.8858 65.5146 75.5992C65.6337 75.3126 65.6646 74.997 65.6036 74.6927C65.5425 74.3884 65.3922 74.1092 65.1719 73.8906C64.9521 73.6738 64.6731 73.5269 64.37 73.4686C64.0669 73.4101 63.7533 73.4428 63.4688 73.5625C63.2794 73.6416 63.105 73.7526 62.9531 73.8906C62.8067 74.0359 62.6904 74.2087 62.6111 74.3991C62.5318 74.5895 62.4909 74.7937 62.4909 75C62.4909 75.2063 62.5318 75.4105 62.6111 75.6009C62.6904 75.7913 62.8067 75.9641 62.9531 76.1094ZM55.1406 76.1094C55.2859 76.2558 55.4587 76.3721 55.6491 76.4514C55.8395 76.5307 56.0437 76.5716 56.25 76.5716C56.4563 76.5716 56.6605 76.5307 56.8509 76.4514C57.0413 76.3721 57.2141 76.2558 57.3594 76.1094C57.5042 75.9634 57.6188 75.7902 57.6965 75.5999C57.7743 75.4095 57.8137 75.2056 57.8125 75C57.81 74.7958 57.7676 74.5941 57.6875 74.4062C57.6131 74.2144 57.5016 74.0392 57.3594 73.8906C57.0652 73.5964 56.6661 73.4311 56.25 73.4311C55.8339 73.4311 55.4349 73.5964 55.1406 73.8906C54.8464 74.1849 54.6811 74.5839 54.6811 75C54.6811 75.4161 54.8464 75.8151 55.1406 76.1094ZM62.9531 83.9219C63.105 84.0599 63.2794 84.1709 63.4688 84.25C63.6566 84.3301 63.8583 84.3725 64.0625 84.375C64.3729 84.3768 64.6767 84.2861 64.9353 84.1146C65.194 83.943 65.3956 83.6983 65.5146 83.4117C65.6337 83.1251 65.6646 82.8095 65.6036 82.5052C65.5425 82.2009 65.3922 81.9217 65.1719 81.7031C64.9521 81.4863 64.6731 81.3394 64.37 81.2811C64.0669 81.2226 63.7533 81.2553 63.4688 81.375C63.2794 81.4541 63.105 81.5651 62.9531 81.7031C62.8067 81.8484 62.6904 82.0212 62.6111 82.2116C62.5318 82.402 62.4909 82.6062 62.4909 82.8125C62.4909 83.0188 62.5318 83.223 62.6111 83.4134C62.6904 83.6038 62.8067 83.7766 62.9531 83.9219ZM55.1406 83.9219C55.3951 84.1784 55.7307 84.3389 56.0902 84.3758C56.4496 84.4128 56.8108 84.324 57.1122 84.1246C57.4136 83.9252 57.6365 83.6275 57.743 83.2822C57.8496 82.9368 57.8331 82.5653 57.6965 82.2307C57.5598 81.8962 57.3114 81.6193 56.9936 81.4473C56.6758 81.2754 56.3082 81.2188 55.9534 81.2874C55.5985 81.356 55.2785 81.5455 55.0477 81.8236C54.8169 82.1016 54.6896 82.4511 54.6875 82.8125C54.6933 83.2262 54.8551 83.6224 55.1406 83.9219ZM47.3281 49.5469C47.6224 49.8411 48.0214 50.0064 48.4375 50.0064C48.8536 50.0064 49.2527 49.8411 49.5469 49.5469C49.8411 49.2526 50.0064 48.8536 50.0064 48.4375C50.0064 48.0214 49.8411 47.6224 49.5469 47.3281C49.3272 47.1113 49.0481 46.9644 48.745 46.9061C48.4419 46.8477 48.1283 46.8803 47.8438 47C47.652 47.0744 47.4767 47.1859 47.3281 47.3281C47.1817 47.4734 47.0654 47.6462 46.9861 47.8366C46.9068 48.027 46.8659 48.2312 46.8659 48.4375C46.8659 48.6438 46.9068 48.848 46.9861 49.0384C47.0654 49.2288 47.1817 49.4016 47.3281 49.5469Z" fill="url(#paint0_linear_20364_6342)"/>
<defs>
<linearGradient id="paint0_linear_20364_6342" x1="-52.4554" y1="19.8611" x2="74.4054" y2="85.395" gradientUnits="userSpaceOnUse">
<stop stop-color="#FFC900"/>
<stop offset="1" stop-color="#FE5401"/>
</linearGradient>
</defs>
</svg>
