<svg width="16" height="17" viewBox="0 0 16 17" fill="none" xmlns="http://www.w3.org/2000/svg">
<path d="M5.78125 10.0531C5.78125 10.9131 6.44125 11.6064 7.26125 11.6064H8.93458C9.64792 11.6064 10.2279 10.9997 10.2279 10.2531C10.2279 9.43973 9.87458 9.15307 9.34792 8.9664L6.66125 8.03307C6.13458 7.8464 5.78125 7.55973 5.78125 6.7464C5.78125 5.99973 6.36125 5.39307 7.07458 5.39307H8.74792C9.56792 5.39307 10.2279 6.0864 10.2279 6.9464" stroke="#FE7634" stroke-linecap="round" stroke-linejoin="round"/>
<path d="M8 4.5V12.5" stroke="#FE7634" stroke-linecap="round" stroke-linejoin="round"/>
<path d="M7.9987 15.1668C11.6806 15.1668 14.6654 12.1821 14.6654 8.50016C14.6654 4.81826 11.6806 1.8335 7.9987 1.8335C4.3168 1.8335 1.33203 4.81826 1.33203 8.50016C1.33203 12.1821 4.3168 15.1668 7.9987 15.1668Z" stroke="#FE7634" stroke-linecap="round" stroke-linejoin="round"/>
</svg>
