<svg width="40" height="40" viewBox="0 0 40 40" fill="none" xmlns="http://www.w3.org/2000/svg">
<path opacity="0.4" d="M26.9859 3.33398H13.0193C6.9526 3.33398 3.33594 6.95065 3.33594 13.0173V26.9673C3.33594 33.0507 6.9526 36.6673 13.0193 36.6673H26.9693C33.0359 36.6673 36.6526 33.0507 36.6526 26.984V13.0173C36.6693 6.95065 33.0526 3.33398 26.9859 3.33398Z" fill="#FE5401"/>
<path d="M26.4848 13.5172C24.0181 11.0672 20.0181 11.0672 17.5681 13.5172C15.8515 15.2172 15.3348 17.6839 16.0015 19.8505L12.0848 23.7672C11.8181 24.0505 11.6181 24.6005 11.6848 25.0005L11.9348 26.8172C12.0181 27.4172 12.5848 27.9839 13.1848 28.0672L15.0015 28.3339C15.4015 28.3839 15.9515 28.2172 16.2348 27.9172L16.9181 27.2339C17.0848 27.0839 17.0848 26.8172 16.9181 26.6505L15.3015 25.0339C15.0681 24.8005 15.0681 24.4005 15.3015 24.1505C15.5348 23.9172 15.9348 23.9172 16.1848 24.1505L17.8015 25.7672C17.9515 25.9172 18.2181 25.9172 18.3848 25.7672L20.1515 24.0172C22.3015 24.6839 24.7681 24.1672 26.4848 22.4672C28.9515 19.9839 28.9515 15.9839 26.4848 13.5172ZM22.0848 20.0005C20.9348 20.0005 20.0015 19.0672 20.0015 17.9172C20.0015 16.7672 20.9348 15.8339 22.0848 15.8339C23.2348 15.8339 24.1681 16.7672 24.1681 17.9172C24.1681 19.0672 23.2348 20.0005 22.0848 20.0005Z" fill="#FE5401"/>
</svg>
