<svg width="20" height="20" viewBox="0 0 20 20" fill="none" xmlns="http://www.w3.org/2000/svg">
<path d="M2.36241 4.83312H4.26241C4.41147 5.35958 4.73684 5.82432 5.18833 6.15565C5.63983 6.48699 6.19236 6.6665 6.76068 6.6665C7.329 6.6665 7.88152 6.48699 8.33302 6.15565C8.78452 5.82432 9.10989 5.35958 9.25894 4.83312H17.6402C17.8244 4.83312 18.001 4.76289 18.1312 4.63788C18.2615 4.51286 18.3346 4.3433 18.3346 4.1665C18.3346 3.98971 18.2615 3.82015 18.1312 3.69513C18.001 3.57012 17.8244 3.49988 17.6402 3.49988H9.25894C9.10989 2.97343 8.78452 2.50869 8.33302 2.17735C7.88152 1.84602 7.329 1.6665 6.76068 1.6665C6.19236 1.6665 5.63983 1.84602 5.18833 2.17735C4.73684 2.50869 4.41147 2.97343 4.26241 3.49988H2.36241C2.17824 3.49988 2.0016 3.57012 1.87137 3.69513C1.74113 3.82015 1.66797 3.98971 1.66797 4.1665C1.66797 4.3433 1.74113 4.51286 1.87137 4.63788C2.0016 4.76289 2.17824 4.83312 2.36241 4.83312ZM6.76033 2.99992C7.00069 2.99992 7.23565 3.06834 7.4355 3.19652C7.63535 3.32471 7.79112 3.5069 7.8831 3.72007C7.97508 3.93324 7.99915 4.1678 7.95226 4.39409C7.90536 4.62039 7.78962 4.82825 7.61966 4.9914C7.4497 5.15455 7.23316 5.26566 6.99742 5.31067C6.76168 5.35569 6.51733 5.33259 6.29526 5.24429C6.0732 5.15599 5.8834 5.00647 5.74986 4.81462C5.61633 4.62278 5.54505 4.39723 5.54505 4.1665C5.54542 3.85721 5.67358 3.56069 5.9014 3.34199C6.12923 3.12329 6.43813 3.00027 6.76033 2.99992Z" fill="white"/>
<path d="M17.6402 9.33355H15.7402C15.5914 8.80712 15.2661 8.34233 14.8147 8.01094C14.3632 7.67955 13.8107 7.5 13.2423 7.5C12.6739 7.5 12.1213 7.67955 11.6699 8.01094C11.2184 8.34233 10.8932 8.80712 10.7444 9.33355H2.36241C2.17824 9.33355 2.0016 9.40377 1.87137 9.52875C1.74113 9.65373 1.66797 9.82325 1.66797 10C1.66797 10.1768 1.74113 10.3463 1.87137 10.4712C2.0016 10.5962 2.17824 10.6664 2.36241 10.6664H10.7444C10.8932 11.1929 11.2184 11.6577 11.6699 11.9891C12.1213 12.3204 12.6739 12.5 13.2423 12.5C13.8107 12.5 14.3632 12.3204 14.8147 11.9891C15.2661 11.6577 15.5914 11.1929 15.7402 10.6664H17.6402C17.8244 10.6664 18.001 10.5962 18.1312 10.4712C18.2615 10.3463 18.3346 10.1768 18.3346 10C18.3346 9.82325 18.2615 9.65373 18.1312 9.52875C18.001 9.40377 17.8244 9.33355 17.6402 9.33355ZM13.2423 11.1663C13.0019 11.1663 12.767 11.0979 12.5671 10.9697C12.3673 10.8416 12.2115 10.6594 12.1195 10.4463C12.0275 10.2332 12.0035 9.99871 12.0503 9.77247C12.0972 9.54623 12.213 9.33842 12.3829 9.17531C12.5529 9.01221 12.7694 8.90113 13.0052 8.85613C13.2409 8.81113 13.4853 8.83422 13.7073 8.9225C13.9294 9.01077 14.1192 9.16025 14.2527 9.35205C14.3863 9.54384 14.4576 9.76933 14.4576 10C14.4572 10.3092 14.329 10.6057 14.1012 10.8243C13.8734 11.0429 13.5645 11.1659 13.2423 11.1663Z" fill="white"/>
<path d="M17.6402 15.1669H9.25894C9.10989 14.6404 8.78452 14.1757 8.33302 13.8443C7.88152 13.513 7.329 13.3335 6.76068 13.3335C6.19236 13.3335 5.63983 13.513 5.18833 13.8443C4.73684 14.1757 4.41147 14.6404 4.26241 15.1669H2.36241C2.17824 15.1669 2.0016 15.2371 1.87137 15.3621C1.74113 15.4871 1.66797 15.6567 1.66797 15.8335C1.66797 16.0103 1.74113 16.1799 1.87137 16.3049C2.0016 16.4299 2.17824 16.5001 2.36241 16.5001H4.26241C4.41147 17.0266 4.73684 17.4913 5.18833 17.8226C5.63983 18.154 6.19236 18.3335 6.76068 18.3335C7.329 18.3335 7.88152 18.154 8.33302 17.8226C8.78452 17.4913 9.10989 17.0266 9.25894 16.5001H17.6402C17.8244 16.5001 18.001 16.4299 18.1312 16.3049C18.2615 16.1799 18.3346 16.0103 18.3346 15.8335C18.3346 15.6567 18.2615 15.4871 18.1312 15.3621C18.001 15.2371 17.8244 15.1669 17.6402 15.1669ZM6.76033 17.0001C6.51997 17.0001 6.28501 16.9317 6.08516 16.8035C5.88531 16.6753 5.72954 16.4931 5.63756 16.2799C5.54558 16.0668 5.52151 15.8322 5.5684 15.6059C5.6153 15.3796 5.73104 15.1717 5.901 15.0086C6.07096 14.8454 6.2875 14.7343 6.52324 14.6893C6.75898 14.6443 7.00333 14.6674 7.2254 14.7557C7.44746 14.844 7.63726 14.9935 7.7708 15.1854C7.90433 15.3772 7.97561 15.6028 7.97561 15.8335C7.97506 16.1427 7.84684 16.4392 7.61905 16.6578C7.39126 16.8765 7.08247 16.9996 6.76033 17.0001Z" fill="white"/>
</svg>
