<svg width="24" height="24" viewBox="0 0 24 24" fill="none" xmlns="http://www.w3.org/2000/svg">
<path d="M11.6641 14.8333C12.3474 14.8333 12.9141 14.2667 12.9141 13.5833V5.25C12.9141 4.56667 12.3474 4 11.6641 4C10.9807 4 10.4141 4.56667 10.4141 5.25V13.5833C10.4141 14.2667 10.9807 14.8333 11.6641 14.8333Z" fill="white"/>
<path d="M13.2 17.9508C13.1167 17.7508 13 17.5674 12.85 17.4008C12.6833 17.2508 12.5 17.1341 12.3 17.0508C11.9 16.8841 11.4333 16.8841 11.0333 17.0508C10.8333 17.1341 10.65 17.2508 10.4833 17.4008C10.3333 17.5674 10.2167 17.7508 10.1333 17.9508C10.05 18.1508 10 18.3674 10 18.5841C10 18.8008 10.05 19.0174 10.1333 19.2174C10.2167 19.4341 10.3333 19.6008 10.4833 19.7674C10.65 19.9174 10.8333 20.0341 11.0333 20.1174C11.2333 20.2008 11.45 20.2508 11.6667 20.2508C11.8833 20.2508 12.1 20.2008 12.3 20.1174C12.5 20.0341 12.6833 19.9174 12.85 19.7674C13 19.6008 13.1167 19.4341 13.2 19.2174C13.2833 19.0174 13.3333 18.8008 13.3333 18.5841C13.3333 18.3674 13.2833 18.1508 13.2 17.9508Z" fill="white"/>
</svg>
