<svg width="80" height="80" viewBox="0 0 80 80" fill="none" xmlns="http://www.w3.org/2000/svg">
<rect x="0.5" y="0.5" width="79" height="79" rx="39.5" fill="#FFEEE6"/>
<rect x="0.5" y="0.5" width="79" height="79" rx="39.5" stroke="url(#paint0_linear_19973_2099)"/>
<path d="M49 41.5006V47.5006C49 47.6995 48.921 47.8903 48.7803 48.0309C48.6397 48.1716 48.4489 48.2506 48.25 48.2506H31.75C31.5511 48.2506 31.3603 48.1716 31.2197 48.0309C31.079 47.8903 31 47.6995 31 47.5006V41.5006C31 41.3017 31.079 41.1109 31.2197 40.9703C31.3603 40.8296 31.5511 40.7506 31.75 40.7506C31.9489 40.7506 32.1397 40.8296 32.2803 40.9703C32.421 41.1109 32.5 41.3017 32.5 41.5006V46.7506H47.5V41.5006C47.5 41.3017 47.579 41.1109 47.7197 40.9703C47.8603 40.8296 48.0511 40.7506 48.25 40.7506C48.4489 40.7506 48.6397 40.8296 48.7803 40.9703C48.921 41.1109 49 41.3017 49 41.5006ZM36.7806 35.2812L39.25 32.8109V41.5006C39.25 41.6995 39.329 41.8903 39.4697 42.0309C39.6103 42.1716 39.8011 42.2506 40 42.2506C40.1989 42.2506 40.3897 42.1716 40.5303 42.0309C40.671 41.8903 40.75 41.6995 40.75 41.5006V32.8109L43.2194 35.2812C43.3601 35.4219 43.551 35.501 43.75 35.501C43.949 35.501 44.1399 35.4219 44.2806 35.2812C44.4214 35.1405 44.5004 34.9496 44.5004 34.7506C44.5004 34.5516 44.4214 34.3607 44.2806 34.22L40.5306 30.47C40.461 30.4002 40.3783 30.3449 40.2872 30.3072C40.1962 30.2694 40.0986 30.25 40 30.25C39.9014 30.25 39.8038 30.2694 39.7128 30.3072C39.6217 30.3449 39.539 30.4002 39.4694 30.47L35.7194 34.22C35.5786 34.3607 35.4996 34.5516 35.4996 34.7506C35.4996 34.9496 35.5786 35.1405 35.7194 35.2812C35.8601 35.4219 36.051 35.501 36.25 35.501C36.449 35.501 36.6399 35.4219 36.7806 35.2812Z" fill="#FE5401"/>
<defs>
<linearGradient id="paint0_linear_19973_2099" x1="-57.1429" y1="12.4444" x2="61.2582" y2="75.8736" gradientUnits="userSpaceOnUse">
<stop stop-color="#FFC900"/>
<stop offset="1" stop-color="#FE5401"/>
</linearGradient>
</defs>
</svg>
