<svg width="40" height="40" viewBox="0 0 40 40" fill="none" xmlns="http://www.w3.org/2000/svg">
<path opacity="0.4" d="M20.0026 36.6673C29.2074 36.6673 36.6693 29.2054 36.6693 20.0007C36.6693 10.7959 29.2074 3.33398 20.0026 3.33398C10.7979 3.33398 3.33594 10.7959 3.33594 20.0007C3.33594 29.2054 10.7979 36.6673 20.0026 36.6673Z" fill="#FE5401"/>
<path d="M20 22.9173C20.6833 22.9173 21.25 22.3507 21.25 21.6673V13.334C21.25 12.6507 20.6833 12.084 20 12.084C19.3167 12.084 18.75 12.6507 18.75 13.334V21.6673C18.75 22.3507 19.3167 22.9173 20 22.9173Z" fill="#FE5401"/>
<path d="M21.5359 26.0328C21.4526 25.8328 21.3359 25.6495 21.1859 25.4828C21.0193 25.3328 20.8359 25.2161 20.6359 25.1328C20.2359 24.9661 19.7693 24.9661 19.3693 25.1328C19.1693 25.2161 18.9859 25.3328 18.8193 25.4828C18.6693 25.6495 18.5526 25.8328 18.4693 26.0328C18.3859 26.2328 18.3359 26.4495 18.3359 26.6661C18.3359 26.8828 18.3859 27.0995 18.4693 27.2995C18.5526 27.5161 18.6693 27.6828 18.8193 27.8495C18.9859 27.9995 19.1693 28.1161 19.3693 28.1995C19.5693 28.2828 19.7859 28.3328 20.0026 28.3328C20.2193 28.3328 20.4359 28.2828 20.6359 28.1995C20.8359 28.1161 21.0193 27.9995 21.1859 27.8495C21.3359 27.6828 21.4526 27.5161 21.5359 27.2995C21.6193 27.0995 21.6693 26.8828 21.6693 26.6661C21.6693 26.4495 21.6193 26.2328 21.5359 26.0328Z" fill="#FE5401"/>
</svg>
