<svg width="24" height="24" viewBox="0 0 24 24" fill="none" xmlns="http://www.w3.org/2000/svg">
<path opacity="0.4" d="M18.0746 20.1691L18.0745 20.1691L18.0733 20.1743C17.8878 20.955 17.1922 21.4999 16.3798 21.4999H3.23974C2.07579 21.4999 1.23354 20.3546 1.57773 19.2167C1.57789 19.2162 1.57805 19.2157 1.57821 19.2151L5.78717 5.68847L5.78753 5.68732C6.01278 4.95718 6.68886 4.45996 7.44976 4.45996H19.7498C20.501 4.45996 21.1023 4.90195 21.3575 5.52062L21.3626 5.53292L21.3683 5.54492C21.434 5.68279 21.4746 5.85852 21.4915 6.06148C21.5068 6.24493 21.4919 6.44086 21.444 6.6414C21.4438 6.64202 21.4437 6.64264 21.4435 6.64326L18.0746 20.1691Z" fill="white" stroke="#FEFFFF"/>
<path d="M22.4941 19.6562L22.4943 19.6586C22.5716 20.6553 21.7843 21.5 20.7828 21.5H18.5082C18.7621 21.1903 18.9502 20.8206 19.0486 20.4083L21.7581 9.5302L22.4941 19.6562Z" fill="white" stroke="#FEFFFF"/>
<path d="M9.68172 7.13038C9.62172 7.13038 9.56173 7.12036 9.50173 7.11036C9.10173 7.01036 8.85174 6.61038 8.95174 6.20038L9.99172 1.88038C10.0917 1.48038 10.4917 1.24039 10.9017 1.33039C11.3017 1.43039 11.5517 1.83036 11.4517 2.24036L10.4117 6.56037C10.3317 6.90037 10.0217 7.13038 9.68172 7.13038Z" fill="white"/>
<path d="M16.3795 7.1398C16.3295 7.1398 16.2694 7.13978 16.2194 7.11978C15.8194 7.02978 15.5595 6.62977 15.6395 6.22977L16.5794 1.8898C16.6694 1.4798 17.0694 1.22978 17.4694 1.30978C17.8694 1.39978 18.1294 1.7998 18.0494 2.1998L17.1094 6.53976C17.0394 6.89977 16.7295 7.1398 16.3795 7.1398Z" fill="white"/>
<path d="M15.7031 12.75H7.70312C7.29313 12.75 6.95312 12.41 6.95312 12C6.95312 11.59 7.29313 11.25 7.70312 11.25H15.7031C16.1131 11.25 16.4531 11.59 16.4531 12C16.4531 12.41 16.1131 12.75 15.7031 12.75Z" fill="white"/>
<path d="M14.7031 16.75H6.70312C6.29313 16.75 5.95312 16.41 5.95312 16C5.95312 15.59 6.29313 15.25 6.70312 15.25H14.7031C15.1131 15.25 15.4531 15.59 15.4531 16C15.4531 16.41 15.1131 16.75 14.7031 16.75Z" fill="white"/>
</svg>
