<svg width="25" height="25" viewBox="0 0 25 25" fill="none" xmlns="http://www.w3.org/2000/svg">
<path d="M22.5 9V14C22.5 18 20.5 20 16.5 20H16C15.69 20 15.39 20.15 15.2 20.4L13.7 22.4C13.04 23.28 11.96 23.28 11.3 22.4L9.8 20.4C9.64 20.18 9.27 20 9 20H8.5C4.5 20 2.5 19 2.5 14V9C2.5 5 4.5 3 8.5 3H12.5" stroke="#FE5401" stroke-width="1.5" stroke-miterlimit="10" stroke-linecap="round" stroke-linejoin="round"/>
<path d="M18.9851 1.82043L19.2651 2.39042C19.4051 2.67042 19.7551 2.93043 20.0651 2.99043L20.4451 3.05043C21.5851 3.24043 21.8551 4.08043 21.0351 4.91043L20.6851 5.26042C20.4551 5.50042 20.3251 5.96042 20.3951 6.28042L20.4451 6.49043C20.7551 7.87043 20.0251 8.40042 18.8251 7.68042L18.5651 7.53042C18.2551 7.35042 17.7551 7.35042 17.4451 7.53042L17.1851 7.68042C15.9751 8.41042 15.2451 7.87043 15.5651 6.49043L15.6151 6.28042C15.6851 5.96042 15.5551 5.50042 15.3251 5.26042L14.9751 4.91043C14.1551 4.08043 14.4251 3.24043 15.5651 3.05043L15.9451 2.99043C16.2451 2.94043 16.6051 2.67042 16.7451 2.39042L17.0251 1.82043C17.5651 0.73043 18.4451 0.73043 18.9851 1.82043Z" stroke="#FE5401" stroke-width="1.5" stroke-linecap="round" stroke-linejoin="round"/>
<path d="M16.4945 12H16.5035" stroke="#FE5401" stroke-width="2" stroke-linecap="round" stroke-linejoin="round"/>
<path d="M12.4945 12H12.5035" stroke="#FE5401" stroke-width="2" stroke-linecap="round" stroke-linejoin="round"/>
<path d="M8.49451 12H8.50349" stroke="#FE5401" stroke-width="2" stroke-linecap="round" stroke-linejoin="round"/>
</svg>
