<svg width="40" height="40" viewBox="0 0 40 40" fill="none" xmlns="http://www.w3.org/2000/svg">
<path opacity="0.4" d="M18.2641 3.51631L9.0974 6.94965C7.3474 7.61631 5.91406 9.68298 5.91406 11.5663V25.0663C5.91406 26.4163 6.7974 28.1996 7.88073 28.9996L17.0474 35.8496C18.6641 37.0663 21.3141 37.0663 22.9307 35.8496L32.0974 28.9996C33.1807 28.183 34.0641 26.4163 34.0641 25.0663V11.5663C34.0641 9.69965 32.6307 7.61631 30.8807 6.96631L21.7141 3.53298C20.7807 3.16631 19.2141 3.16631 18.2641 3.51631Z" fill="#FE5401"/>
<path d="M24.1693 17.5007C24.1693 15.2007 22.3026 13.334 20.0026 13.334C17.7026 13.334 15.8359 15.2007 15.8359 17.5007C15.8359 19.3673 17.0693 20.9173 18.7526 21.4507V25.834C18.7526 26.5173 19.3193 27.084 20.0026 27.084C20.6859 27.084 21.2526 26.5173 21.2526 25.834V21.4507C22.9359 20.9173 24.1693 19.3673 24.1693 17.5007Z" fill="#FE5401"/>
</svg>
