<svg width="24" height="24" viewBox="0 0 24 24" fill="none" xmlns="http://www.w3.org/2000/svg">
<path opacity="0.4" d="M12 2C9.38 2 7.25 4.13 7.25 6.75C7.25 9.32 9.26 11.4 11.88 11.49C11.96 11.48 12.04 11.48 12.1 11.49C12.12 11.49 12.13 11.49 12.15 11.49C12.16 11.49 12.16 11.49 12.17 11.49C14.73 11.4 16.74 9.32 16.75 6.75C16.75 4.13 14.62 2 12 2Z" fill="white"/>
<path d="M7.19966 20.1748L7.19829 20.1739C6.03934 19.4012 5.46094 18.4016 5.46094 17.3799C5.46094 16.3578 6.0397 15.3484 7.20798 14.5661C8.51454 13.7017 10.2527 13.2549 12.0134 13.2549C13.7748 13.2549 15.5077 13.702 16.8036 14.5659C17.959 15.3362 18.5319 16.3355 18.5409 17.3619C18.5402 18.3934 17.9613 19.3927 16.8018 20.1751C15.501 21.0483 13.7637 21.4999 12.0009 21.4999C10.238 21.4999 8.50054 21.0482 7.19966 20.1748Z" fill="white" stroke="#FEFFFF"/>
</svg>
