<svg width="24" height="24" viewBox="0 0 24 24" fill="none" xmlns="http://www.w3.org/2000/svg">
<path d="M8.87807 4.59973C8.07807 1.13973 2.86807 1.12973 2.06807 4.59973C1.59807 6.62973 2.88807 8.34973 4.00807 9.41973C4.82807 10.1897 6.11807 10.1897 6.93807 9.41973C8.05807 8.34973 9.33807 6.62973 8.87807 4.59973ZM5.50807 6.19973C4.95807 6.19973 4.50807 5.74973 4.50807 5.19973C4.50807 4.64973 4.94807 4.19973 5.49807 4.19973H5.50807C6.06807 4.19973 6.50807 4.64973 6.50807 5.19973C6.50807 5.74973 6.06807 6.19973 5.50807 6.19973Z" fill="#FE5401"/>
<path d="M6.51172 5.2002C6.51172 5.7502 6.07172 6.2002 5.51172 6.2002C4.96172 6.2002 4.51172 5.7502 4.51172 5.2002C4.51172 4.6502 4.95172 4.2002 5.50172 4.2002H5.51172C6.07172 4.2002 6.51172 4.6502 6.51172 5.2002Z" fill="#1A1A1A"/>
<path d="M21.9119 16.5997C21.1119 13.1397 15.8819 13.1297 15.0719 16.5997C14.6019 18.6297 15.8919 20.3497 17.0219 21.4197C17.8419 22.1897 19.1419 22.1897 19.9619 21.4197C21.0919 20.3497 22.3819 18.6297 21.9119 16.5997ZM18.5319 18.1997C17.9819 18.1997 17.5319 17.7497 17.5319 17.1997C17.5319 16.6497 17.9719 16.1997 18.5219 16.1997H18.5319C19.0819 16.1997 19.5319 16.6497 19.5319 17.1997C19.5319 17.7497 19.0819 18.1997 18.5319 18.1997Z" fill="#FE5401"/>
<path d="M19.5312 17.2002C19.5312 17.7502 19.0812 18.2002 18.5312 18.2002C17.9812 18.2002 17.5312 17.7502 17.5312 17.2002C17.5312 16.6502 17.9712 16.2002 18.5212 16.2002H18.5312C19.0812 16.2002 19.5312 16.6502 19.5312 17.2002Z" fill="#1A1A1A"/>
<path d="M12.0014 19.75H9.32141C8.16141 19.75 7.15141 19.05 6.75141 17.97C6.34141 16.89 6.64141 15.7 7.51141 14.93L15.5014 7.94C15.9814 7.52 15.9914 6.95 15.8514 6.56C15.7014 6.17 15.3214 5.75 14.6814 5.75H12.0014C11.5914 5.75 11.2514 5.41 11.2514 5C11.2514 4.59 11.5914 4.25 12.0014 4.25H14.6814C15.8414 4.25 16.8514 4.95 17.2514 6.03C17.6614 7.11 17.3614 8.3 16.4914 9.07L8.50141 16.06C8.02141 16.48 8.01141 17.05 8.15141 17.44C8.30141 17.83 8.68141 18.25 9.32141 18.25H12.0014C12.4114 18.25 12.7514 18.59 12.7514 19C12.7514 19.41 12.4114 19.75 12.0014 19.75Z" fill="#FE5401"/>
</svg>
