<svg width="40" height="40" viewBox="0 0 40 40" fill="none" xmlns="http://www.w3.org/2000/svg">
<rect width="40" height="40" rx="20" fill="#FE5401"/>
<path opacity="0.4" d="M10 20.8804V19.1204C10 18.0804 10.85 17.2204 11.9 17.2204C13.71 17.2204 14.45 15.9404 13.54 14.3704C13.02 13.4704 13.33 12.3004 14.24 11.7804L15.97 10.7904C16.76 10.3204 17.78 10.6004 18.25 11.3904L18.36 11.5804C19.26 13.1504 20.74 13.1504 21.65 11.5804L21.76 11.3904C22.23 10.6004 23.25 10.3204 24.04 10.7904L25.77 11.7804C26.68 12.3004 26.99 13.4704 26.47 14.3704C25.56 15.9404 26.3 17.2204 28.11 17.2204C29.15 17.2204 30.01 18.0704 30.01 19.1204V20.8804C30.01 21.9204 29.16 22.7804 28.11 22.7804C26.3 22.7804 25.56 24.0604 26.47 25.6304C26.99 26.5404 26.68 27.7004 25.77 28.2204L24.04 29.2104C23.25 29.6804 22.23 29.4004 21.76 28.6104L21.65 28.4204C20.75 26.8504 19.27 26.8504 18.36 28.4204L18.25 28.6104C17.78 29.4004 16.76 29.6804 15.97 29.2104L14.24 28.2204C13.33 27.7004 13.02 26.5304 13.54 25.6304C14.45 24.0604 13.71 22.7804 11.9 22.7804C10.85 22.7804 10 21.9204 10 20.8804Z" fill="white"/>
<path d="M22.75 20C22.75 21.5188 21.5188 22.75 20 22.75C18.4812 22.75 17.25 21.5188 17.25 20C17.25 18.4812 18.4812 17.25 20 17.25C21.5188 17.25 22.75 18.4812 22.75 20Z" fill="white" stroke="#FEFFFF"/>
</svg>
