<svg width="40" height="40" viewBox="0 0 40 40" fill="none" xmlns="http://www.w3.org/2000/svg">
<g clip-path="url(#clip0_20347_5147)">
<path d="M37.0405 10.821C37.0405 13.2004 35.105 15.1359 32.7256 15.1359C30.347 15.1359 28.4115 13.2004 28.4115 10.821C28.4115 8.44236 30.347 6.50689 32.7256 6.50689C35.105 6.50682 37.0405 8.44228 37.0405 10.821ZM32.1097 16.2652L30.9422 38.8293C30.9083 39.4858 30.3676 40 29.7104 40H8.03668C7.38106 40 6.84036 39.4849 6.80481 38.8285L5.36543 11.0103L6.22036 10.7813H27.2475C27.2475 10.7945 27.2467 10.8078 27.2467 10.821C27.2466 13.6344 29.378 15.9576 32.1097 16.2652ZM13.1197 35.4338L12.5773 15.3177C12.5575 14.5099 11.8845 13.8725 11.0701 13.889C10.2649 13.9122 9.62497 14.5868 9.64481 15.3929V15.3946L10.1864 35.5106C10.2062 36.306 10.861 36.9401 11.6572 36.9401C11.6697 36.9401 11.6812 36.9401 11.6936 36.9393C11.8859 36.9342 12.0752 36.891 12.2507 36.8124C12.4263 36.7338 12.5845 36.6213 12.7164 36.4813C12.9874 36.196 13.1304 35.8232 13.1197 35.4338ZM20.3407 15.3268C20.3407 14.5182 19.6834 13.8601 18.8748 13.8601C18.0646 13.8601 17.4057 14.5182 17.4057 15.3268V35.452C17.4057 36.2606 18.0646 36.9187 18.8748 36.9187C19.6834 36.9187 20.3407 36.2606 20.3407 35.452V15.3268ZM28.1023 15.3954C28.1139 15.0043 27.9708 14.6323 27.6997 14.347C27.5674 14.2067 27.4086 14.0939 27.2325 14.0153C27.0564 13.9367 26.8664 13.8937 26.6736 13.889C26.6621 13.8882 26.6497 13.8882 26.6381 13.8882C25.8477 13.8882 25.1929 14.5207 25.1697 15.316L24.6274 35.4354C24.6075 36.2415 25.2475 36.9161 26.0561 36.9393C26.0685 36.9401 26.08 36.9401 26.0925 36.9401C26.8861 36.9401 27.541 36.306 27.56 35.5123L28.1023 15.3954ZM29.1548 1.8315C29.049 1.43549 28.7935 1.10314 28.4355 0.896426C28.0767 0.688926 27.6608 0.633535 27.2648 0.739316L19.8247 2.73346C19.686 2.77047 19.5385 2.75501 19.4105 2.69002C19.2825 2.62503 19.183 2.51509 19.1311 2.38127C18.4415 0.60291 16.5325 -0.365215 14.6897 0.128301C12.8476 0.621894 11.6786 2.41518 11.9688 4.30103C11.9908 4.4427 11.9596 4.58749 11.8813 4.70758C11.8031 4.82768 11.6831 4.91461 11.5447 4.95166L4.10622 6.94416C3.28356 7.16572 2.79411 8.01486 3.01325 8.83666L3.41426 10.3273L29.5558 3.32205L29.1548 1.8315Z" fill="url(#paint0_linear_20347_5147)"/>
</g>
<defs>
<linearGradient id="paint0_linear_20347_5147" x1="-21.3816" y1="6.22223" x2="32.3404" y2="30.7422" gradientUnits="userSpaceOnUse">
<stop stop-color="#FFC900"/>
<stop offset="1" stop-color="#FE5401"/>
</linearGradient>
<clipPath id="clip0_20347_5147">
<rect width="40" height="40" fill="white"/>
</clipPath>
</defs>
</svg>
