<svg width="40" height="40" viewBox="0 0 40 40" fill="none" xmlns="http://www.w3.org/2000/svg">
<path opacity="0.4" d="M26.9849 3.33398H13.0349C6.96825 3.33398 3.35156 6.95065 3.35156 13.0173V26.9673C3.35156 33.034 6.96825 36.6507 13.0349 36.6507H26.9849C33.0516 36.6507 36.6682 33.034 36.6682 26.9673V13.0173C36.6682 6.95065 33.0516 3.33398 26.9849 3.33398Z" fill="#FE5401"/>
<path d="M28.1003 14.1008C26.7003 13.9674 25.417 13.8841 24.167 13.8008L24.0336 13.0008C23.917 12.2008 23.667 10.5508 21.1503 10.5508H18.8336C16.3503 10.5508 16.0836 12.1341 15.9503 12.9841L15.817 13.7674C15.1003 13.8174 14.4003 13.8508 13.6836 13.9174L11.867 14.1008C11.2336 14.1674 10.7836 14.7174 10.8503 15.3508C10.917 15.9341 11.4003 16.3841 11.9836 16.3841C12.017 16.3841 12.067 16.3841 12.1003 16.3841L13.9003 16.2008C14.9003 16.1174 15.917 16.0341 16.917 15.9841C18.9503 15.9008 20.9836 15.9341 23.0336 16.0341C24.5503 16.1008 26.1336 16.2174 27.867 16.3841C27.9003 16.3841 27.9336 16.3841 27.967 16.3841C28.5503 16.3841 29.0503 15.9341 29.1003 15.3508C29.1836 14.7174 28.7336 14.1508 28.1003 14.1008Z" fill="#FE5401"/>
<path d="M26.3822 18.5009C26.0989 18.1842 25.6822 18.0176 25.2655 18.0176H14.7322C14.3155 18.0176 13.8989 18.2009 13.6155 18.5009C13.3322 18.8176 13.1822 19.2342 13.2155 19.6509L13.7322 26.2509C13.8322 27.6676 13.9489 29.4342 17.1489 29.4342H22.8489C26.0489 29.4342 26.1655 27.6676 26.2655 26.2509L26.7822 19.6509C26.8155 19.2342 26.6655 18.8176 26.3822 18.5009Z" fill="#FE5401"/>
</svg>
