<svg width="80" height="80" viewBox="0 0 80 80" fill="none" xmlns="http://www.w3.org/2000/svg">
<path d="M76.0001 40C76.0001 48.32 73.1601 56.04 68.3601 62.12C61.8001 70.56 51.5201 76 40.0001 76C28.4801 76 18.2001 70.56 11.6401 62.12C6.67539 55.8172 3.98343 48.0232 4.00008 40C4.00008 30.4522 7.79292 21.2955 14.5442 14.5442C21.2955 7.79285 30.4523 4 40.0001 4C49.5479 4 58.7046 7.79285 65.4559 14.5442C72.2072 21.2955 76.0001 30.4522 76.0001 40Z" fill="#FFB08A"/>
<path d="M61.1189 10.8799C65.5905 17.0139 67.9995 24.409 67.9989 31.9999C67.9989 40.3199 65.1589 48.0399 60.3589 54.1199C57.0041 58.444 52.7043 61.9429 47.7886 64.3488C42.8729 66.7546 37.4718 68.0035 31.9989 67.9999C24.0789 67.9999 16.7989 65.3999 10.8789 61.0399C11.1189 61.3999 11.3589 61.7599 11.6389 62.1199C18.1989 70.5599 28.4789 75.9999 39.9989 75.9999C51.5189 75.9999 61.7989 70.5599 68.3589 62.1199C73.3236 55.8171 76.0155 48.0231 75.9989 39.9999C75.9989 27.9999 70.1189 17.4399 61.1189 10.8799Z" fill="#FE8C55"/>
<path d="M48.2008 45.7598C47.8408 45.9998 47.5208 46.2798 47.1208 46.4798C42.4008 48.9598 36.4808 49.6398 31.7608 46.6398C30.3608 45.7598 29.2408 44.6798 28.2408 43.4798C18.8808 44.8398 11.0408 49.3598 6.80078 54.3598L6.84078 54.3998C7.00078 54.5998 7.16078 54.8398 7.32078 55.0398C8.88078 56.9598 10.4408 58.9598 11.6408 61.1198C25.4408 48.5598 45.7208 45.7598 61.8808 55.5198C59.1608 51.7598 54.2808 48.1598 48.2008 45.7598ZM24.4408 33.9998C24.0808 29.8398 25.9608 25.3998 28.8808 22.4798C32.2008 19.1598 37.1208 17.4798 41.8008 17.7198C44.0008 17.8398 45.9608 18.4798 47.6408 19.4798C44.9208 14.6398 39.8008 11.3198 33.8808 11.3198C25.1208 11.3198 18.0408 18.3998 18.0408 27.1598C18.0408 33.2398 21.5208 38.4398 26.5208 41.1198C25.3106 38.929 24.6003 36.4976 24.4408 33.9998Z" fill="#FE8C55"/>
<path d="M40 78C28.2 78 17.32 72.68 10.08 63.36C4.84989 56.6961 2.00496 48.4712 2 40C2 19.04 19.04 2 40 2C60.96 2 78 19.04 78 40C78 48.48 75.12 56.76 69.92 63.36C62.72 72.68 51.8 78 40 78ZM40 6C21.24 6 6 21.24 6 40C6 47.56 8.56 55 13.2 60.88C19.68 69.24 29.44 74 40 74C50.56 74 60.32 69.24 66.8 60.88C71.4649 54.9196 73.9997 47.5689 74 40C74 21.24 58.76 6 40 6Z" fill="#1A1A1A"/>
<path d="M68.3606 62.1202C61.8006 70.5602 51.5206 76.0002 40.0006 76.0002C28.4806 76.0002 18.2006 70.5602 11.6406 62.1202C16.1206 55.5202 27.1206 49.1602 40.0006 49.1602C52.8806 49.1602 63.9206 55.5202 68.3606 62.1202Z" fill="#FFEEE6"/>
<path d="M40.0002 49.16C48.7483 49.16 55.8402 42.0682 55.8402 33.32C55.8402 24.5718 48.7483 17.48 40.0002 17.48C31.252 17.48 24.1602 24.5718 24.1602 33.32C24.1602 42.0682 31.252 49.16 40.0002 49.16Z" fill="#FFEEE6"/>
<path d="M60.4406 54.88C57.0826 59.0951 52.818 62.4994 47.9636 64.8401C43.1092 67.1807 37.7898 68.3975 32.4006 68.4C25.04 68.392 17.8607 66.1153 11.8406 61.88C11.8006 61.96 11.6806 62.04 11.6406 62.12C18.2006 70.56 28.4806 76 40.0006 76C51.5206 76 61.8006 70.56 68.3606 62.12C66.6406 59.56 63.8806 57.04 60.4406 54.88ZM46.7206 19C47.6806 21.04 48.2406 23.32 48.2406 25.72C48.2406 34.48 41.1606 41.56 32.4006 41.56C30.0006 41.56 27.7206 41 25.6806 40.04C26.9481 42.7684 28.9701 45.077 31.5076 46.6931C34.0451 48.3091 36.9922 49.1652 40.0006 49.16C48.7606 49.16 55.8406 42.08 55.8406 33.32C55.8406 26.96 52.1206 21.52 46.7206 19Z" fill="#FFCAB0"/>
<path d="M40.0005 78.0002C28.2005 78.0002 17.3205 72.6802 10.0805 63.3602C9.82465 63.0234 9.67956 62.6156 9.66524 62.1929C9.65091 61.7702 9.76805 61.3535 10.0005 61.0002C14.5205 54.3202 25.8405 47.1602 40.0005 47.1602C54.2405 47.1602 65.5205 54.3202 70.0005 61.0002C70.4805 61.7202 70.4405 62.6802 69.9205 63.3602C62.7205 72.6802 51.8005 78.0002 40.0005 78.0002ZM14.1605 62.0802C20.6405 69.6802 29.9605 74.0002 40.0005 74.0002C50.0405 74.0002 59.3605 69.6802 65.8405 62.0802C61.2805 56.4802 51.4005 51.1602 40.0005 51.1602C28.6405 51.1602 18.7605 56.4802 14.1605 62.0802Z" fill="#1A1A1A"/>
<path d="M40.0002 51.16C30.1602 51.16 22.1602 43.16 22.1602 33.32C22.1602 23.48 30.1602 15.48 40.0002 15.48C49.8402 15.48 57.8402 23.48 57.8402 33.32C57.8402 43.16 49.8402 51.16 40.0002 51.16ZM40.0002 19.48C36.3872 19.5669 32.9514 21.0631 30.4268 23.6492C27.9022 26.2352 26.4889 29.706 26.4889 33.32C26.4889 36.934 27.9022 40.4048 30.4268 42.9908C32.9514 45.5768 36.3872 47.0731 40.0002 47.16C43.6131 47.0731 47.0489 45.5768 49.5735 42.9908C52.0981 40.4048 53.5114 36.934 53.5114 33.32C53.5114 29.706 52.0981 26.2352 49.5735 23.6492C47.0489 21.0631 43.6131 19.5669 40.0002 19.48Z" fill="#1A1A1A"/>
</svg>
