<svg width="40" height="40" viewBox="0 0 40 40" fill="none" xmlns="http://www.w3.org/2000/svg">
<path opacity="0.4" d="M35.6161 18.9842V28.9676C35.6161 33.5676 31.8828 37.3009 27.2828 37.3009H12.7161C8.11615 37.3009 4.38281 33.5676 4.38281 28.9676V19.1009C5.64948 20.4676 7.44948 21.2509 9.39948 21.2509C11.4995 21.2509 13.5161 20.2009 14.7828 18.5176C15.9161 20.2009 17.8495 21.2509 19.9995 21.2509C22.1328 21.2509 24.0328 20.2509 25.1828 18.5842C26.4661 20.2342 28.4495 21.2509 30.5161 21.2509C32.5328 21.2509 34.3661 20.4342 35.6161 18.9842Z" fill="#FE5401"/>
<path d="M24.9803 2.08398H14.9803L13.747 14.3506C13.647 15.484 13.8137 16.5507 14.2303 17.5173C15.197 19.784 17.4637 21.2507 19.997 21.2507C22.5637 21.2507 24.7803 19.8173 25.7803 17.534C26.0803 16.8173 26.2637 15.984 26.2803 15.134V14.8173L24.9803 2.08398Z" fill="#FE5401"/>
<path opacity="0.6" d="M37.2656 13.784L36.7823 9.16732C36.0823 4.13398 33.799 2.08398 28.9156 2.08398H22.5156L23.749 14.584C23.7656 14.7507 23.7823 14.934 23.7823 15.2507C23.8823 16.1173 24.149 16.9173 24.549 17.634C25.749 19.834 28.0823 21.2507 30.5156 21.2507C32.7323 21.2507 34.7323 20.2673 35.9823 18.534C36.9823 17.2007 37.4323 15.5173 37.2656 13.784Z" fill="#FE5401"/>
<path opacity="0.6" d="M10.9827 2.08398C6.08275 2.08398 3.81608 4.13398 3.09942 9.21732L2.64942 13.8007C2.48275 15.584 2.96608 17.3173 4.01608 18.6673C5.28275 20.3173 7.23275 21.2507 9.39942 21.2507C11.8327 21.2507 14.1661 19.834 15.3494 17.6673C15.7828 16.9173 16.0661 16.0507 16.1494 15.1507L17.4494 2.10065H10.9827V2.08398Z" fill="#FE5401"/>
<path d="M18.9198 27.7658C16.8031 27.9824 15.2031 29.7824 15.2031 31.9158V37.2991H24.7865V32.4991C24.8031 29.0158 22.7531 27.3658 18.9198 27.7658Z" fill="#FE5401"/>
</svg>
